<svg width="52" height="52" viewBox="0 0 52 52" fill="none" xmlns="http://www.w3.org/2000/svg">
<path d="M39 19.9517C38.0331 20.5156 37.375 21.5507 37.375 22.75C37.3765 23.3178 37.5275 23.8752 37.8127 24.3661C38.098 24.857 38.5075 25.2642 39 25.5466V32.539C38.8651 32.5309 38.7368 32.5 38.6003 32.5H32.5V25.5466C32.9925 25.2642 33.402 24.857 33.6873 24.3661C33.9725 23.8752 34.1235 23.3178 34.125 22.75C34.125 21.5507 33.4669 20.5156 32.5 19.9517V13H39V19.9517ZM13 32.539V25.5466C13.4925 25.2642 13.902 24.857 14.1873 24.3661C14.4725 23.8752 14.6235 23.3178 14.625 22.75C14.625 21.5507 13.9669 20.5156 13 19.9517V13H19.5V19.9517C18.5331 20.5156 17.875 21.5507 17.875 22.75C17.8765 23.3178 18.0275 23.8752 18.3127 24.3661C18.598 24.857 19.0075 25.2642 19.5 25.5466V32.5H13.3998C13.2633 32.5 13.1349 32.5309 13 32.539ZM29.25 19.9517C28.2831 20.5156 27.625 21.5507 27.625 22.75C27.6265 23.3178 27.7775 23.8752 28.0627 24.3661C28.348 24.857 28.7575 25.2642 29.25 25.5466V32.5H22.75V25.5466C23.2425 25.2642 23.652 24.857 23.9373 24.3661C24.2225 23.8752 24.3735 23.3178 24.375 22.75C24.375 21.5507 23.7169 20.5156 22.75 19.9517V13H29.25V19.9517ZM47.125 9.75H4.875C3.98125 9.75 3.25 10.4812 3.25 11.375C3.25 12.2671 3.98125 13 4.875 13H9.75V19.9517C8.78312 20.5156 8.125 21.5507 8.125 22.75C8.1265 23.3178 8.27747 23.8752 8.56273 24.3661C8.84798 24.857 9.25747 25.2642 9.75 25.5466V33.5644C8.75687 34.1805 7.93724 35.0397 7.36856 36.0608C6.79989 37.0818 6.50095 38.231 6.5 39.3997C6.5 40.9744 7.77563 42.25 9.35025 42.25H42.6497C44.2244 42.25 45.5 40.9744 45.5 39.3997C45.5 36.933 44.1951 34.7848 42.25 33.5644V25.5466C42.7425 25.2642 43.152 24.857 43.4373 24.3661C43.7225 23.8752 43.8735 23.3178 43.875 22.75C43.875 21.5507 43.2169 20.5156 42.25 19.9517V13H47.125C48.0187 13 48.75 12.2671 48.75 11.375C48.75 10.4812 48.0187 9.75 47.125 9.75Z" fill="black"/>
</svg>
