<svg width="52" height="52" viewBox="0 0 52 52" fill="none" xmlns="http://www.w3.org/2000/svg">
<g clip-path="url(#clip0_392_5446)">
<path d="M21.4167 41.0833V50.8333M21.4167 41.0833C21.4167 32.4167 28.2785 19.837 36.7198 12.8018L39.8333 10.2083V9.66667H29.0607M21.4167 41.0833C21.4167 32.4167 14.5548 19.837 6.1135 12.8018L3 10.2083V9.66667H29.0607M21.4167 50.8333H10.5833M21.4167 50.8333H32.25M29.0607 9.66667C29.2698 7.79614 30.0159 6.02614 31.2088 4.5703C32.4018 3.11447 33.9906 2.03504 35.7835 1.46233C37.5765 0.889615 39.4968 0.848093 41.3128 1.34278C43.1288 1.83746 44.7629 2.8472 46.0176 4.25011C47.2724 5.65302 48.0943 7.38913 48.384 9.24886C48.6738 11.1086 48.4191 13.0125 47.6507 14.7306C46.8823 16.4488 45.6329 17.9078 44.0535 18.9316C42.4741 19.9553 40.6322 20.5001 38.75 20.5M11.6667 18.3333H31.1667" stroke="black" stroke-width="2"/>
</g>
<defs>
<clipPath id="clip0_392_5446">
<rect width="51.5003" height="51.8333" fill="white"/>
</clipPath>
</defs>
</svg>
