<svg width="52" height="52" viewBox="0 0 52 52" fill="none" xmlns="http://www.w3.org/2000/svg">
<path d="M16.6562 11.375V4.875C16.6562 4.55177 16.7847 4.24177 17.0132 4.01321C17.2418 3.78465 17.5518 3.65625 17.875 3.65625C18.1982 3.65625 18.5082 3.78465 18.7368 4.01321C18.9653 4.24177 19.0938 4.55177 19.0938 4.875V11.375C19.0938 11.6982 18.9653 12.0082 18.7368 12.2368C18.5082 12.4653 18.1982 12.5938 17.875 12.5938C17.5518 12.5938 17.2418 12.4653 17.0132 12.2368C16.7847 12.0082 16.6562 11.6982 16.6562 11.375ZM24.375 12.5938C24.6982 12.5938 25.0082 12.4653 25.2368 12.2368C25.4653 12.0082 25.5938 11.6982 25.5938 11.375V4.875C25.5938 4.55177 25.4653 4.24177 25.2368 4.01321C25.0082 3.78465 24.6982 3.65625 24.375 3.65625C24.0518 3.65625 23.7418 3.78465 23.5132 4.01321C23.2847 4.24177 23.1562 4.55177 23.1562 4.875V11.375C23.1562 11.6982 23.2847 12.0082 23.5132 12.2368C23.7418 12.4653 24.0518 12.5938 24.375 12.5938ZM30.875 12.5938C31.1982 12.5938 31.5082 12.4653 31.7368 12.2368C31.9653 12.0082 32.0938 11.6982 32.0938 11.375V4.875C32.0938 4.55177 31.9653 4.24177 31.7368 4.01321C31.5082 3.78465 31.1982 3.65625 30.875 3.65625C30.5518 3.65625 30.2418 3.78465 30.0132 4.01321C29.7847 4.24177 29.6562 4.55177 29.6562 4.875V11.375C29.6562 11.6982 29.7847 12.0082 30.0132 12.2368C30.2418 12.4653 30.5518 12.5938 30.875 12.5938ZM49.9688 24.375V26C49.9695 28.0104 49.1859 29.9417 47.7846 31.3832C46.3833 32.8248 44.4749 33.6627 42.4653 33.7188C41.2693 37.2483 39.0723 40.3537 36.142 42.6562H42.25C42.5732 42.6562 42.8832 42.7847 43.1118 43.0132C43.3403 43.2418 43.4688 43.5518 43.4688 43.875C43.4688 44.1982 43.3403 44.5082 43.1118 44.7368C42.8832 44.9653 42.5732 45.0938 42.25 45.0938H6.5C6.17677 45.0938 5.86677 44.9653 5.63821 44.7368C5.40965 44.5082 5.28125 44.1982 5.28125 43.875C5.28125 43.5518 5.40965 43.2418 5.63821 43.0132C5.86677 42.7847 6.17677 42.6562 6.5 42.6562H12.608C10.3302 40.8673 8.48757 38.5854 7.21856 35.982C5.94956 33.3785 5.28719 30.5213 5.28125 27.625V17.875C5.28125 17.5518 5.40965 17.2418 5.63821 17.0132C5.86677 16.7847 6.17677 16.6562 6.5 16.6562H42.25C44.2971 16.6562 46.2604 17.4695 47.708 18.917C49.1555 20.3646 49.9688 22.3279 49.9688 24.375ZM41.0312 27.625V19.0938H7.71875V27.625C7.7252 30.7685 8.61813 33.8464 10.295 36.5052C11.9719 39.164 14.3647 41.296 17.1986 42.6562H31.5514C34.3853 41.296 36.7781 39.164 38.455 36.5052C40.1319 33.8464 41.0248 30.7685 41.0312 27.625ZM47.5312 24.375C47.5309 23.1865 47.1296 22.0329 46.3924 21.1007C45.6552 20.1685 44.6251 19.5122 43.4688 19.238V27.625C43.4686 28.8276 43.3537 30.0274 43.1255 31.2081C44.3571 31.0011 45.4755 30.3643 46.2821 29.4108C47.0886 28.4574 47.5312 27.2489 47.5312 26V24.375Z" fill="black"/>
</svg>
