<svg width="46" height="48" viewBox="0 0 46 48" fill="none" xmlns="http://www.w3.org/2000/svg">
<path d="M16.6113 34.0733V13.105H12.778V34.0733H16.6113ZM10.2224 30.1417V17.0365H6.38911V22.2786H5.11133V24.8997H6.38911V30.1417H10.2224ZM29.3891 13.105V34.0733H33.2224V13.105H29.3891ZM35.778 30.1417H39.6113V24.8997H40.8891V22.2786H39.6113V17.0365H35.778V30.1417ZM19.1669 24.8997H26.8336V22.2786H19.1669V24.8997Z" fill="#167300"/>
<path fill-rule="evenodd" clip-rule="evenodd" d="M0 3.93156C0 2.88884 0.403868 1.88884 1.12276 1.15153C1.84165 0.414217 2.81667 0 3.83333 0H42.1667C43.1833 0 44.1584 0.414217 44.8772 1.15153C45.5961 1.88884 46 2.88884 46 3.93156V43.2472C46 44.2899 45.5961 45.2899 44.8772 46.0272C44.1584 46.7645 43.1833 47.1787 42.1667 47.1787H3.83333C2.81667 47.1787 1.84165 46.7645 1.12276 46.0272C0.403868 45.2899 0 44.2899 0 43.2472V3.93156ZM2.55556 3.93156C2.55556 3.58399 2.69018 3.25065 2.92981 3.00488C3.16944 2.75911 3.49445 2.62104 3.83333 2.62104H42.1667C42.5056 2.62104 42.8306 2.75911 43.0702 3.00488C43.3098 3.25065 43.4444 3.58399 43.4444 3.93156V43.2472C43.4444 43.5947 43.3098 43.9281 43.0702 44.1738C42.8306 44.4196 42.5056 44.5577 42.1667 44.5577H3.83333C3.49445 44.5577 3.16944 44.4196 2.92981 44.1738C2.69018 43.9281 2.55556 43.5947 2.55556 43.2472V3.93156Z" fill="#167300"/>
</svg>
