<svg width="46" height="46" viewBox="0 0 46 46" fill="none" xmlns="http://www.w3.org/2000/svg">
<path d="M16.6113 33.2218V12.7773H12.778V33.2218H16.6113ZM10.2224 29.3885V16.6107H6.38911V21.7218H5.11133V24.2773H6.38911V29.3885H10.2224ZM29.3891 12.7773V33.2218H33.2224V12.7773H29.3891ZM35.778 29.3885H39.6113V24.2773H40.8891V21.7218H39.6113V16.6107H35.778V29.3885ZM19.1669 24.2773H26.8336V21.7218H19.1669V24.2773Z" fill="#1E1E1E"/>
<path fill-rule="evenodd" clip-rule="evenodd" d="M0 3.83333C0 2.81667 0.403868 1.84165 1.12276 1.12276C1.84165 0.403868 2.81667 0 3.83333 0H42.1667C43.1833 0 44.1584 0.403868 44.8772 1.12276C45.5961 1.84165 46 2.81667 46 3.83333V42.1667C46 43.1833 45.5961 44.1584 44.8772 44.8772C44.1584 45.5961 43.1833 46 42.1667 46H3.83333C2.81667 46 1.84165 45.5961 1.12276 44.8772C0.403868 44.1584 0 43.1833 0 42.1667V3.83333ZM2.55556 3.83333C2.55556 3.49445 2.69018 3.16944 2.92981 2.92981C3.16944 2.69018 3.49445 2.55556 3.83333 2.55556H42.1667C42.5056 2.55556 42.8306 2.69018 43.0702 2.92981C43.3098 3.16944 43.4444 3.49445 43.4444 3.83333V42.1667C43.4444 42.5056 43.3098 42.8306 43.0702 43.0702C42.8306 43.3098 42.5056 43.4444 42.1667 43.4444H3.83333C3.49445 43.4444 3.16944 43.3098 2.92981 43.0702C2.69018 42.8306 2.55556 42.5056 2.55556 42.1667V3.83333Z" fill="#1E1E1E"/>
</svg>
