<svg width="51" height="67" viewBox="0 0 51 67" fill="none" xmlns="http://www.w3.org/2000/svg">
<path d="M31.814 44.9997V35.2775C31.814 34.7618 31.6092 34.2672 31.2445 33.9025C30.8798 33.5379 30.3853 33.333 29.8696 33.333H24.0362C23.5205 33.333 23.026 33.5379 22.6613 33.9025C22.2967 34.2672 22.0918 34.7618 22.0918 35.2775V44.9997" stroke="#1E1E1E" stroke-width="2" stroke-linecap="round" stroke-linejoin="round"/>
<path d="M13.3411 25.5556V37.2222C13.3411 40.8894 13.3411 42.7211 14.4806 43.8606C15.62 45 17.4517 45 21.1189 45H32.7856C36.4528 45 38.2845 45 39.4239 43.8606C40.5634 42.7211 40.5634 40.8894 40.5634 37.2222V25.5556M12.6042 12.9458C12.9581 11.5303 13.135 10.8244 13.662 10.4122C14.1909 10 14.92 10 16.3784 10H37.5261C38.9845 10 39.7136 10 40.2425 10.4122C40.7675 10.8244 40.9464 11.5303 41.3003 12.9458L43.6395 22.3064C43.8281 23.0608 43.9234 23.4361 43.902 23.7433C43.8754 24.1308 43.7334 24.5014 43.4942 24.8074C43.2551 25.1134 42.9298 25.3408 42.5603 25.4603C42.2686 25.5556 41.872 25.5556 41.0767 25.5556C40.0403 25.5556 39.5211 25.5556 39.0875 25.4544C38.4864 25.3144 37.9271 25.0333 37.4562 24.6343C36.9852 24.2353 36.6159 23.73 36.3789 23.16C36.2059 22.7478 36.1222 22.2461 35.957 21.2486C35.9103 20.9686 35.887 20.8286 35.8597 20.7917C35.8417 20.7668 35.818 20.7465 35.7907 20.7325C35.7633 20.7185 35.733 20.7113 35.7022 20.7113C35.6715 20.7113 35.6412 20.7185 35.6138 20.7325C35.5864 20.7465 35.5628 20.7668 35.5447 20.7917C35.5175 20.8286 35.4942 20.9667 35.4475 21.2486L35.29 22.1994L35.255 22.3939C35.0889 23.268 34.628 24.0587 33.9493 24.6341C33.2706 25.2095 32.4151 25.5347 31.5256 25.5556H31.1289C30.205 25.5347 29.3187 25.1854 28.6289 24.5704C27.9391 23.9555 27.4908 23.1149 27.3645 22.1994L27.207 21.2467C27.1603 20.9686 27.137 20.8286 27.1097 20.7917C27.0917 20.7668 27.068 20.7465 27.0407 20.7325C27.0133 20.7185 26.983 20.7113 26.9522 20.7113C26.9215 20.7113 26.8912 20.7185 26.8638 20.7325C26.8364 20.7465 26.8128 20.7668 26.7947 20.7917C26.7675 20.8286 26.7442 20.9667 26.6975 21.2486L26.54 22.1994L26.505 22.3939C26.3389 23.268 25.878 24.0587 25.1993 24.6341C24.5206 25.2095 23.6651 25.5347 22.7756 25.5556H22.3789C21.4894 25.5347 20.6339 25.2095 19.9552 24.6341C19.2765 24.0587 18.8156 23.268 18.6495 22.3939L18.6145 22.1994L18.457 21.2467C18.4103 20.9686 18.387 20.8286 18.3597 20.7917C18.3417 20.7668 18.318 20.7465 18.2907 20.7325C18.2633 20.7185 18.233 20.7113 18.2022 20.7113C18.1715 20.7113 18.1412 20.7185 18.1138 20.7325C18.0864 20.7465 18.0628 20.7668 18.0447 20.7917C18.0175 20.8286 17.9942 20.9667 17.9475 21.2486C17.7822 22.2481 17.6986 22.7458 17.5256 23.16C17.2888 23.7297 16.9198 24.235 16.4492 24.6339C15.9785 25.0329 15.4197 25.3141 14.8189 25.4544C14.3834 25.5556 13.8661 25.5556 12.8278 25.5556C12.0325 25.5556 11.6359 25.5556 11.3442 25.4603C10.9747 25.3408 10.6494 25.1134 10.4103 24.8074C10.1711 24.5014 10.0291 24.1308 10.0025 23.7433C9.98308 23.4361 10.0764 23.0608 10.265 22.3064L12.6042 12.9458Z" stroke="#1E1E1E" stroke-width="2"/>
</svg>
