<svg width="68" height="66" viewBox="0 0 68 66" fill="none" xmlns="http://www.w3.org/2000/svg">
<path d="M53.4019 19.4101H45.7985C45.6525 19.4101 45.5095 19.3681 45.3867 19.2889C45.2639 19.2098 45.1666 19.097 45.1062 18.964C45.0459 18.831 45.0252 18.6834 45.0465 18.5389C45.0679 18.3945 45.1304 18.2592 45.2267 18.1493L52.1411 10.2459C52.2375 10.1356 52.3653 10.0574 52.5073 10.0217C52.6494 9.98599 52.799 9.99451 52.936 10.0461C53.0731 10.0977 53.1912 10.1899 53.2744 10.3105C53.3577 10.431 53.4022 10.574 53.4019 10.7205V19.4101ZM53.4019 19.4101H55.4927M53.4019 19.4101V22.5464M10 22.5464C10 16.7725 14.6814 12.0921 20.4543 12.0921H21.0502C21.6769 12.0922 22.2893 12.2801 22.8082 12.6315C23.3272 12.983 23.7289 13.4818 23.9617 14.0638L26.5397 20.5088C26.8436 21.2687 26.9178 22.1011 26.7531 22.9028C26.5885 23.7044 26.1922 24.4402 25.6134 25.0188L22.3977 28.2356C21.8823 28.751 21.6649 29.5005 21.876 30.1989C22.8789 33.483 24.6733 36.4705 27.1014 38.8986C29.5295 41.3267 32.517 43.1211 35.8011 44.124C36.4995 44.3362 37.249 44.1187 37.7655 43.6033L40.9812 40.3866C41.5599 39.808 42.2957 39.4119 43.0974 39.2474C43.8991 39.083 44.7314 39.1574 45.4912 39.4614L51.9373 42.0394C52.519 42.2723 53.0176 42.6741 53.3689 43.1931C53.7201 43.712 53.9079 44.3243 53.9079 44.9509V45.5457C53.9079 51.3196 49.2275 56 43.4536 56H42.9309C25.0437 56 10.4872 41.7383 10.0125 23.9661C10.0122 23.9609 10.01 23.9561 10.0063 23.9525C10.0026 23.9489 10.0003 23.944 10 23.9389V22.5464Z" stroke="#1E1E1E" stroke-width="2" stroke-linecap="round" stroke-linejoin="round"/>
<path d="M40.8575 22.5461H32.4941V20.7636C32.4942 20.154 32.6719 19.5576 33.0055 19.0474C33.3392 18.5372 33.8143 18.1353 34.3728 17.8908L39.027 15.8543C39.6697 15.5731 40.1961 15.0793 40.5176 14.4558C40.8391 13.8322 40.9362 13.117 40.7926 12.4304C40.649 11.7437 40.2734 11.1274 39.729 10.685C39.1845 10.2425 38.5044 10.001 37.8028 10.001H35.6304C34.9816 10.0006 34.3486 10.2015 33.8187 10.576C33.2888 10.9505 32.8881 11.4801 32.6719 12.0918" stroke="#1E1E1E" stroke-width="2" stroke-linecap="round" stroke-linejoin="round"/>
</svg>
