<svg width="51" height="46" viewBox="0 0 51 46" fill="none" xmlns="http://www.w3.org/2000/svg">
<path d="M6.3 44.5L13.5 37.3313M32.7 18.2237L30.3 20.6124M32.7 18.2237C31.392 16.9218 30.7368 16.2697 30.3864 15.5674C30.0581 14.908 29.8873 14.1821 29.8873 13.4462C29.8873 12.7103 30.0581 11.9843 30.3864 11.325C30.7368 10.6227 31.392 9.97053 32.7 8.66866L39.9 1.50239M32.7 18.2237C34.008 19.5256 34.6632 20.1777 35.3688 20.5264C36.0313 20.8532 36.7606 21.0232 37.5 21.0232C38.2394 21.0232 38.9687 20.8532 39.6312 20.5264C40.3368 20.1777 40.992 19.5256 42.3 18.2237L49.5 11.0574M44.7 6.27751L37.5 13.4438M44.7 44.4976L25.5 25.3876M25.5 25.3876L1.5 1.5C1.5 10.6776 5.1624 19.4778 11.6832 25.968L18.3 32.5538L25.5 25.3876Z" stroke="#167300" stroke-width="3" stroke-linecap="round" stroke-linejoin="round"/>
</svg>
