<svg width="68" height="63" viewBox="0 0 68 63" fill="none" xmlns="http://www.w3.org/2000/svg">
<path d="M14.8 53L22 45.8313M41.2 26.7237L38.8 29.1124M41.2 26.7237C39.892 25.4218 39.2368 24.7697 38.8864 24.0674C38.5581 23.408 38.3873 22.6821 38.3873 21.9462C38.3873 21.2103 38.5581 20.4843 38.8864 19.825C39.2368 19.1227 39.892 18.4705 41.2 17.1687L48.4 10.0024M41.2 26.7237C42.508 28.0256 43.1632 28.6777 43.8688 29.0264C44.5313 29.3532 45.2606 29.5232 46 29.5232C46.7394 29.5232 47.4687 29.3532 48.1312 29.0264C48.8368 28.6777 49.492 28.0256 50.8 26.7237L58 19.5574M53.2 14.7775L46 21.9438M53.2 52.9976L34 33.8876M34 33.8876L10 10C10 19.1776 13.6624 27.9778 20.1832 34.468L26.8 41.0538L34 33.8876Z" stroke="#1E1E1E" stroke-width="2" stroke-linecap="round" stroke-linejoin="round"/>
</svg>
