<svg width="61" height="51" viewBox="0 0 61 51" fill="none" xmlns="http://www.w3.org/2000/svg">
<path d="M12.75 35.5294V27.3235L13.9893 26.988C25.7811 23.7895 38.2189 23.7895 50.0107 26.988L51.25 27.3235V35.5294M12.75 35.5294C12.75 35.5294 12.75 41 10 41M12.75 35.5294H51.25M51.25 35.5294C51.25 35.5294 51.25 41 54 41M16.4167 21.8529C16.4167 18.2259 15.8722 14.6208 14.7997 11.1543L14.5833 10.4559V10H49.4167V10.4559L49.2003 11.1543C48.1296 14.6207 47.5846 18.2266 47.5833 21.8529M32 15.4706H21.9167V21.8529M32 15.4706V21.8529M32 15.4706H42.0833V21.8529" stroke="#1E1E1E" stroke-width="2"/>
</svg>
