<svg width="61" height="52" viewBox="0 0 61 52" fill="none" xmlns="http://www.w3.org/2000/svg">
<path d="M15.1836 42H13.6021L12.4893 36.1818H10V26.32C10 25.0187 10.4608 23.9132 11.3823 23.0036C12.3038 22.0921 13.4206 21.6364 14.7326 21.6364H15.8571V14.6982C15.8571 13.3988 16.3179 12.2904 17.2394 11.3731C18.161 10.4577 19.2777 10 20.5897 10H40.4132C41.7213 10 42.8371 10.4577 43.7606 11.3731C44.6821 12.2885 45.1429 13.3968 45.1429 14.6982V21.6364H46.2704C47.5784 21.6364 48.6942 22.0941 49.6177 23.0095C50.5392 23.9248 51 25.0342 51 26.3375V36.1818H48.5107L47.3979 42H45.8164L44.7036 36.1818H16.2964L15.1836 42ZM31.9643 21.6364H42.2143V14.6982C42.2143 14.1765 42.0454 13.7479 41.7076 13.4124C41.3699 13.0768 40.9384 12.9091 40.4132 12.9091H31.9643V21.6364ZM18.7857 21.6364H29.0357V12.9091H20.5897C20.0626 12.9091 19.6301 13.0768 19.2924 13.4124C18.9546 13.7479 18.7857 14.1765 18.7857 14.6982V21.6364ZM12.9286 33.2727H48.0714V26.3375C48.0714 25.8138 47.9025 25.3842 47.5648 25.0487C47.227 24.7132 46.7955 24.5455 46.2704 24.5455H14.7296C14.2045 24.5455 13.773 24.7132 13.4352 25.0487C13.0975 25.3842 12.9286 25.8138 12.9286 26.3375V33.2727Z" fill="#1E1E1E"/>
</svg>
