<svg width="43" height="43" viewBox="0 0 43 43" fill="none" xmlns="http://www.w3.org/2000/svg">
<path d="M40.5346 30.951C39.7219 30.5718 38.7106 30.1 36.8568 30.1C35.0031 30.1 33.9917 30.5719 33.1792 30.951C32.482 31.2763 31.9314 31.5333 30.7136 31.5333C29.4957 31.5333 28.9453 31.2764 28.2482 30.951C27.4356 30.5719 26.4244 30.1 24.5706 30.1C22.7169 30.1 21.7057 30.572 20.8932 30.951C20.1961 31.2763 19.6456 31.5333 18.4279 31.5333C17.2102 31.5333 16.6598 31.2764 15.9629 30.951C15.1503 30.5719 14.1391 30.1 12.2855 30.1C10.4318 30.1 9.42049 30.572 8.60797 30.951C7.91092 31.2763 7.36044 31.5333 6.14273 31.5333C4.92502 31.5333 4.37453 31.2764 3.67749 30.951C2.86496 30.572 1.85366 30.1 0 30.1V32.9667C1.21771 32.9667 1.7682 33.2236 2.46524 33.549C3.27776 33.9281 4.28907 34.4 6.14273 34.4C7.99639 34.4 9.00769 33.928 9.82022 33.549C10.5173 33.2237 11.0678 32.9667 12.2855 32.9667C13.5032 32.9667 14.0536 33.2236 14.7505 33.549C15.563 33.9281 16.5743 34.4 18.4279 34.4C20.2816 34.4 21.2929 33.928 22.1054 33.549C22.8025 33.2237 23.353 32.9667 24.5706 32.9667C25.7883 32.9667 26.3389 33.2236 27.036 33.549C27.8486 33.9281 28.8598 34.4 30.7136 34.4C32.5673 34.4 33.5787 33.9281 34.3913 33.549C35.0884 33.2237 35.639 32.9667 36.8568 32.9667C38.0746 32.9667 38.6253 33.2236 39.3222 33.549C40.1349 33.9282 41.1463 34.4 43 34.4V31.5333C41.7822 31.5333 41.2315 31.2764 40.5346 30.951ZM36.8568 38.7C35.0031 38.7 33.9917 39.1719 33.1792 39.551C32.482 39.8763 31.9314 40.1333 30.7136 40.1333C29.4957 40.1333 28.9453 39.8764 28.2482 39.551C27.4356 39.1719 26.4244 38.7 24.5706 38.7C22.7169 38.7 21.7057 39.172 20.8932 39.551C20.1961 39.8763 19.6456 40.1333 18.4279 40.1333C17.2102 40.1333 16.6598 39.8764 15.9629 39.551C15.1503 39.1719 14.1391 38.7 12.2855 38.7C10.4318 38.7 9.42049 39.172 8.60797 39.551C7.91092 39.8763 7.36044 40.1333 6.14273 40.1333C4.92502 40.1333 4.37453 39.8764 3.67749 39.551C2.86496 39.172 1.85366 38.7 0 38.7V41.5667C1.21771 41.5667 1.7682 41.8236 2.46524 42.149C3.27776 42.5281 4.28907 43 6.14273 43C7.99639 43 9.00769 42.528 9.82022 42.149C10.5173 41.8237 11.0678 41.5667 12.2855 41.5667C13.5032 41.5667 14.0536 41.8236 14.7505 42.149C15.563 42.5281 16.5743 43 18.4279 43C20.2816 43 21.2929 42.528 22.1054 42.149C22.8025 41.8237 23.353 41.5667 24.5706 41.5667C25.7883 41.5667 26.3389 41.8236 27.036 42.149C27.8486 42.5281 28.8598 43 30.7136 43C32.5673 43 33.5787 42.5281 34.3913 42.149C35.0884 41.8237 35.639 41.5667 36.8568 41.5667C38.0746 41.5667 38.6253 41.8236 39.3222 42.149C40.1349 42.5282 41.1463 43 43 43V40.1333C41.7822 40.1333 41.2315 39.8764 40.5346 39.551C39.7219 39.1719 38.7106 38.7 36.8568 38.7ZM20.7833 22.9333H33.6833V27.95H36.55V8.9474C36.5489 8.07738 36.8128 7.22766 37.3066 6.51136L41.7832 0H38.3043L34.9443 4.88731C34.1213 6.08115 33.6815 7.49737 33.6833 8.9474V12.9H20.7833V8.9474C20.7822 8.07738 21.0461 7.22766 21.54 6.51136L26.0165 0H22.5376L19.1776 4.88731C18.3546 6.08115 17.9148 7.49737 17.9167 8.9474V27.95H20.7833V22.9333ZM20.7833 15.7667H33.6833V20.0667H20.7833V15.7667Z" fill="#1E1E1E"/>
</svg>
