<svg width="54" height="51" viewBox="0 0 54 51" fill="none" xmlns="http://www.w3.org/2000/svg">
<path d="M10 37.5556H44V41H10V37.5556ZM25.3 18.6111H28.7V32.3889H25.3V18.6111ZM20.1405 18.6111L16.9785 27.4168L13.8114 18.6111H10.2006L15.2768 32.3269H18.6768L23.753 18.6111H20.1405ZM35.5 28.9444V32.3889H32.1V18.6111H38.9C40.2526 18.6111 41.5498 19.1555 42.5062 20.1244C43.4627 21.0933 44 22.4075 44 23.7778C44 25.1481 43.4627 26.4622 42.5062 27.4312C41.5498 28.4001 40.2526 28.9444 38.9 28.9444H35.5ZM35.5 22.0556V25.5H38.9C39.3509 25.5 39.7833 25.3186 40.1021 24.9956C40.4209 24.6726 40.6 24.2345 40.6 23.7778C40.6 23.321 40.4209 22.883 40.1021 22.56C39.7833 22.237 39.3509 22.0556 38.9 22.0556H35.5ZM10 10H44V13.4444H10V10Z" fill="#1E1E1E"/>
</svg>
