<svg width="68" height="69" viewBox="0 0 68 69" fill="none" xmlns="http://www.w3.org/2000/svg">
<path d="M10 39.4212C12.4741 39.4212 15.9256 38.6851 18.0926 40.2743L22.3875 43.4188C23.9841 44.5888 25.7123 44.2036 27.4941 43.9258C29.839 43.5577 31.9377 45.5589 31.9377 48.1622C31.9377 48.8739 26.8847 50.685 26.1559 51.0287C25.4542 51.3605 24.6752 51.4946 23.9029 51.4164C23.1306 51.3382 22.3943 51.0508 21.7732 50.5851L16.9274 47.0336" stroke="#1E1E1E" stroke-width="2" stroke-linecap="round" stroke-linejoin="round"/>
<path d="M31.9377 46.5629L41.9096 41.956C42.7891 41.6521 43.7376 41.6089 44.641 41.8316C45.5444 42.0544 46.3642 42.5335 47.0016 43.2113L48.6348 44.92C49.2198 45.5294 49.0833 46.558 48.3593 46.9773L29.215 58.0948C28.6494 58.4263 28.0217 58.6378 27.3709 58.7162C26.7201 58.7946 26.0601 58.7382 25.432 58.5506L10 53.9413M29.5051 34.3753C29.5051 34.3753 34.6239 28.9176 34.6239 22.1876C34.6239 15.4576 29.5051 10 29.5051 10C29.5051 10 24.3863 15.4576 24.3863 22.1876C24.3863 28.9176 29.5051 34.3753 29.5051 34.3753ZM29.5051 34.3753C29.5051 34.3753 36.981 34.2095 41.6927 29.4027C46.4044 24.5935 46.5678 16.964 46.5678 16.964C46.5678 16.964 43.4721 17.0323 40.0108 18.3631M29.5051 34.3753C29.5051 34.3753 22.0292 34.2095 17.3174 29.4027C12.6057 24.5935 12.4424 16.964 12.4424 16.964C12.4424 16.964 15.5381 17.0323 18.9993 18.3631" stroke="#1E1E1E" stroke-width="2" stroke-linecap="round" stroke-linejoin="round"/>
</svg>
