<svg width="52" height="52" viewBox="0 0 52 52" fill="none" xmlns="http://www.w3.org/2000/svg">
<path d="M23.6345 43.2831C22.9903 42.6389 22.6681 41.8502 22.6681 40.9171C22.6681 39.984 22.9903 39.1946 23.6345 38.5489C24.2787 37.9033 25.0674 37.5812 26.0005 37.5826C26.9336 37.5841 27.7223 37.9062 28.3665 38.5489C29.0107 39.1917 29.3328 39.9811 29.3328 40.9171C29.3328 41.8531 29.0107 42.6418 28.3665 43.2831C27.7223 43.9244 26.9336 44.2466 26.0005 44.2494C25.0674 44.2523 24.2787 43.9302 23.6345 43.2831ZM13.7588 33.2579L11.5423 31.0176C13.423 29.1369 15.5904 27.6636 18.0445 26.5976C20.4986 25.5331 23.1506 25.0008 26.0005 25.0008C28.8504 25.0008 31.5024 25.5352 33.9565 26.6041C36.4106 27.673 38.578 29.1521 40.4586 31.0414L38.2421 33.2579C36.6533 31.6691 34.8116 30.4232 32.7171 29.5204C30.6227 28.6177 28.3838 28.1663 26.0005 28.1663C23.6171 28.1663 21.3783 28.6177 19.2838 29.5204C17.1894 30.4232 15.3477 31.6691 13.7588 33.2579ZM4.55048 24.0496L2.33398 21.8331C5.35143 18.7998 8.87226 16.402 12.8965 14.6398C16.9207 12.8776 21.2887 11.9986 26.0005 12.0029C30.7123 12.0073 35.0803 12.8877 39.1045 14.6441C43.1287 16.4006 46.6495 18.7976 49.667 21.8353L47.4505 24.0496C44.6699 21.2691 41.4474 19.0937 37.7828 17.5236C34.1183 15.9535 30.1908 15.1677 26.0005 15.1663C21.8102 15.1648 17.8834 15.9506 14.2203 17.5236C10.5572 19.0966 7.33393 21.2719 4.55048 24.0496Z" fill="black"/>
</svg>
