<svg width="46" height="46" viewBox="0 0 46 46" fill="none" xmlns="http://www.w3.org/2000/svg">
<path d="M43.3626 33.1104C42.4932 32.7048 41.4113 32.2 39.4282 32.2C37.4451 32.2 36.3632 32.7048 35.494 33.1104C34.7482 33.4584 34.1592 33.7333 32.8564 33.7333C31.5535 33.7333 30.9647 33.4585 30.219 33.1104C29.3497 32.7048 28.268 32.2 26.2849 32.2C24.3018 32.2 23.22 32.7049 22.3508 33.1104C21.6051 33.4584 21.0163 33.7333 19.7136 33.7333C18.4109 33.7333 17.8221 33.4585 17.0765 33.1104C16.2073 32.7048 15.1256 32.2 13.1426 32.2C11.1596 32.2 10.0777 32.7049 9.20853 33.1104C8.46285 33.4584 7.87395 33.7333 6.57129 33.7333C5.26863 33.7333 4.67973 33.4585 3.93405 33.1104C3.06485 32.7049 1.98298 32.2 0 32.2V35.2667C1.30266 35.2667 1.89156 35.5415 2.63724 35.8896C3.50645 36.2952 4.58831 36.8 6.57129 36.8C8.55428 36.8 9.63614 36.2951 10.5053 35.8896C11.251 35.5416 11.8399 35.2667 13.1426 35.2667C14.4452 35.2667 15.034 35.5415 15.7796 35.8896C16.6488 36.2952 17.7306 36.8 19.7136 36.8C21.6966 36.8 22.7784 36.2951 23.6476 35.8896C24.3933 35.5416 24.9823 35.2667 26.2849 35.2667C27.5874 35.2667 28.1765 35.5415 28.9222 35.8896C29.7915 36.2952 30.8733 36.8 32.8564 36.8C34.8394 36.8 35.9214 36.2952 36.7907 35.8896C37.5364 35.5416 38.1255 35.2667 39.4282 35.2667C40.731 35.2667 41.3201 35.5415 42.0657 35.8896C42.9351 36.2952 44.0169 36.8 46 36.8V33.7333C44.6972 33.7333 44.1082 33.4585 43.3626 33.1104ZM39.4282 41.4C37.4451 41.4 36.3632 41.9049 35.494 42.3104C34.7482 42.6584 34.1592 42.9333 32.8564 42.9333C31.5535 42.9333 30.9647 42.6585 30.219 42.3104C29.3497 41.9049 28.268 41.4 26.2849 41.4C24.3018 41.4 23.22 41.9049 22.3508 42.3104C21.6051 42.6584 21.0163 42.9333 19.7136 42.9333C18.4109 42.9333 17.8221 42.6585 17.0765 42.3104C16.2073 41.9049 15.1256 41.4 13.1426 41.4C11.1596 41.4 10.0777 41.9049 9.20853 42.3104C8.46285 42.6584 7.87395 42.9333 6.57129 42.9333C5.26863 42.9333 4.67973 42.6585 3.93405 42.3104C3.06485 41.9049 1.98298 41.4 0 41.4V44.4667C1.30266 44.4667 1.89156 44.7415 2.63724 45.0896C3.50645 45.4952 4.58831 46 6.57129 46C8.55428 46 9.63614 45.4951 10.5053 45.0896C11.251 44.7416 11.8399 44.4667 13.1426 44.4667C14.4452 44.4667 15.034 44.7415 15.7796 45.0896C16.6488 45.4952 17.7306 46 19.7136 46C21.6966 46 22.7784 45.4951 23.6476 45.0896C24.3933 44.7416 24.9823 44.4667 26.2849 44.4667C27.5874 44.4667 28.1765 44.7415 28.9222 45.0896C29.7915 45.4952 30.8733 46 32.8564 46C34.8394 46 35.9214 45.4952 36.7907 45.0896C37.5364 44.7416 38.1255 44.4667 39.4282 44.4667C40.731 44.4667 41.3201 44.7415 42.0657 45.0896C42.9351 45.4953 44.0169 46 46 46V42.9333C44.6972 42.9333 44.1082 42.6585 43.3626 42.3104C42.4932 41.9049 41.4113 41.4 39.4282 41.4ZM22.2333 24.5333H36.0333V29.9H39.1V9.57164C39.0988 8.64092 39.3811 7.73191 39.9094 6.96565L44.6983 0H40.9767L37.3823 5.22828C36.5019 6.50542 36.0313 8.02044 36.0333 9.57164V13.8H22.2333V9.57164C22.2321 8.64092 22.5145 7.73191 23.0427 6.96565L27.8316 0H24.11L20.5156 5.22828C19.6352 6.50542 19.1647 8.02044 19.1667 9.57164V29.9H22.2333V24.5333ZM22.2333 16.8667H36.0333V21.4667H22.2333V16.8667Z" fill="#167300"/>
</svg>
